# xmcd CD database file generated by Grip 3.0.3
#
# Track frame offsets:
#       182
#       49127
#       72435
#       100322
#       105387
#       134825
#       155290
#       161290
#       176777
#       195065
#       213407
#       232615
#       248630
#       259785
#       266467
#
# Disc length: 3899 seconds
#
# Revision: 5
# Processed by: cddbd v1.4PL0 Copyright (c) Steve Scherf et al.
# Submitted via: Grip 3.0.3
#
DISCID=c30f390f
DTITLE=James Brown - Sex Machine
DYEAR=1970
DGENRE=Funk
TTITLE0=Get Up I Feel Like Being A Sex Machine
TTITLE1=Brother Rapp (Part I and Part II)
TTITLE2=Bewildered
TTITLE3=I Got The Feelin'
TTITLE4=Give It Up Or Turnit A Loose
TTITLE5=I Don't Want Nobody To Give Me Nothing (Open Up The Door I'll Get It M
TTITLE5=yself)
TTITLE6=Licking Stick
TTITLE7=Lowdown Popcorn
TTITLE8=Spinning Whell
TTITLE9=If I Ruled The World
TTITLE10=There Was A Time
TTITLE11=It's a Man's Man's Man's World
TTITLE12=Please, Please, Please
TTITLE13=I Can't Stand Myself (When You Touch Me)
TTITLE14=Mother Popcorn
EXTD=YEAR: 1970
EXTT0=
EXTT1=
EXTT2=
EXTT3=
EXTT4=
EXTT5=
EXTT6=
EXTT7=
EXTT8=
EXTT9=
EXTT10=
EXTT11=
EXTT12=
EXTT13=
EXTT14=
PLAYORDER=
